<?xml version="1.0" encoding="UTF-8" standalone="no"?>
<svg
   version="1.1"
   width="1024"
   height="1024"
   id="svg38"
   sodipodi:docname="favicon.svg"
   xml:space="preserve"
   inkscape:version="1.3 (0e150ed, 2023-07-21)"
   inkscape:export-filename="favicon-512x512.png"
   inkscape:export-xdpi="48"
   inkscape:export-ydpi="48"
   xmlns:inkscape="http://www.inkscape.org/namespaces/inkscape"
   xmlns:sodipodi="http://sodipodi.sourceforge.net/DTD/sodipodi-0.dtd"
   xmlns="http://www.w3.org/2000/svg"
   xmlns:svg="http://www.w3.org/2000/svg"><defs
     id="defs38" /><sodipodi:namedview
     id="namedview38"
     pagecolor="#505050"
     bordercolor="#eeeeee"
     borderopacity="1"
     inkscape:showpageshadow="0"
     inkscape:pageopacity="0"
     inkscape:pagecheckerboard="0"
     inkscape:deskcolor="#505050"
     inkscape:zoom="0.49129835"
     inkscape:cx="346.02193"
     inkscape:cy="338.89794"
     inkscape:window-width="1712"
     inkscape:window-height="1040"
     inkscape:window-x="0"
     inkscape:window-y="39"
     inkscape:window-maximized="1"
     inkscape:current-layer="svg38" /><g
     id="g38"
     transform="matrix(1.2819936,0,0,1.2819936,-145.51138,-135.87346)"><path
       d="M 0,0 C 0.94423828,0.18256348 1.8884766,0.36512695 2.8613281,0.55322266 25.450765,5.0536569 48.37696,12.738707 69,23 c 0.687393,0.338218 1.374785,0.676436 2.083008,1.024902 C 87.762612,32.310725 103.58204,42.201796 118,54 c 0.51691,0.420718 1.03383,0.841436 1.56641,1.274902 C 133.58088,66.728375 146.6437,78.878727 158,93 c 0.65476,0.809692 0.65476,0.809692 1.32275,1.635742 C 169.48815,107.2896 178.16665,120.79932 186,135 c 1.10602,-0.15855 2.21203,-0.31711 3.35156,-0.48047 C 204.55308,132.6402 219.33517,133.68555 234,138 c 1.20914,0.35062 2.41828,0.70125 3.66406,1.0625 26.55056,8.63043 46.74477,27.53503 59.53906,52.08594 13.03185,26.00719 15.2062,57.38222 6.06543,85.06689 -9.08511,26.04971 -27.72641,46.40848 -52.0498,59.25342 -10.09979,4.87166 -21.48886,8.40773 -32.73828,8.84766 -1.02158,0.0419 -2.04317,0.0838 -3.0957,0.12695 -1.58265,0.059 -1.58265,0.059 -3.19727,0.11914 -1.07443,0.0432 -2.14887,0.0864 -3.25586,0.13086 -2.64376,0.10575 -5.28761,0.20784 -7.93164,0.30664 -0.26104,0.78423 -0.52207,1.56847 -0.79102,2.37646 C 180.16439,407.30839 146.0689,457.29522 90,489 c -0.619717,0.35771 -1.239434,0.71543 -1.87793,1.08398 -31.143117,17.874 -65.801768,27.50307 -100.93457,33.60352 -1.135664,0.20254 -2.271328,0.40509 -3.441406,0.61377 -21.642895,3.60414 -43.461015,4.02994 -65.347168,3.95947 -3.554662,-0.0114 -7.109023,-0.005 -10.663675,0.007 -76.987331,0.21103 -156.864791,-16.65864 -215.223531,-69.97856 -1.69162,-1.54166 -3.39778,-3.06751 -5.11719,-4.57812 -5.242,-4.6155 -9.9602,-9.32153 -14.39453,-14.71094 -0.69416,-0.82564 -0.69416,-0.82564 -1.40234,-1.66797 C -351.49539,409.86225 -366.65044,378.95641 -378,345 c -0.87398,-0.014 -0.87398,-0.014 -1.76562,-0.0283 C -406.5803,344.43412 -430.21849,337.81801 -451,320 c -0.5891,-0.44473 -1.1782,-0.88945 -1.78516,-1.34766 -19.6733,-15.20844 -29.55492,-41.10644 -32.90136,-64.94238 -3.1946,-27.61686 4.16608,-57.31256 21.46386,-79.3584 2.63445,-3.21962 5.40011,-6.29596 8.22266,-9.35156 0.61617,-0.68578 1.23234,-1.37156 1.86719,-2.07813 15.41088,-16.36945 39.78232,-28.12701 62.34228,-29.05371 21.72266,-0.48266 21.72266,-0.48266 28.79053,1.13184 0.69223,-1.2549 0.69223,-1.2549 1.39844,-2.53516 9.66202,-17.32266 20.7818,-33.453468 34.3164,-47.992184 1.9142,-2.071257 3.73104,-4.181803 5.53516,-6.347656 14.03751,-16.028874 31.80565,-28.831481 49.75,-40.125 0.63809,-0.402832 1.27617,-0.805664 1.93359,-1.220703 C -225.22784,8.7662892 -175.12696,-2.7272985 -123,-7 c 1.29937,-0.1134375 2.59875,-0.226875 3.9375,-0.34375 C -79.551968,-10.258461 -38.840932,-7.6424761 0,0 Z"
       fill="#1e231f"
       id="path2"
       transform="translate(601,255)" /><path
       d="m 0,0 c 0.70697021,0.36826904 1.4139404,0.73653809 2.142334,1.1159668 1.3427325,0.7067428 2.6776744,1.4285865 4.0024414,2.168457 4.4672796,2.3671007 8.5106026,3.505947 13.5778806,2.4890137 3.836202,-1.4294689 7.427086,-3.2501453 11.0625,-5.125 2.050434,-1.01765388 4.10252,-2.0319843 6.15625,-3.0429688 0.991289,-0.4903271 1.982578,-0.9806543 3.003906,-1.4858398 34.323536,-16.6367769 78.643638,-20.6024519 115.151858,-8.3854979 1.88105,0.663289 3.75336,1.351226 5.62549,2.039306 0.62954,0.220269 1.25909,0.4405376 1.90771,0.667481 26.97459,9.46344293 48.73455,29.719064 61.09277,55.412598 12.75978,27.865154 15.78948,60.047594 5.24952,89.169924 -5.09101,13.18467 -12.67268,24.47563 -22.875,34.25 -5.19606,5.05222 -11.0076,12.05344 -11.51685,19.60278 -0.0112,0.80784 -0.0224,1.61568 -0.0339,2.448 -0.88562,38.84086 -12.72213,70.79644 -40.96875,97.9375 -5.53516,5.14741 -11.46,9.49874 -17.85546,13.51172 -0.60892,0.38349 -1.21785,0.76699 -1.84522,1.16211 -10.81187,6.68706 -22.23793,11.48346 -34.154784,15.83789 -0.658711,0.24734 -1.317422,0.49468 -1.996094,0.74951 -38.986304,14.43441 -88.2522064,15.16613 -129.003906,8.25049 -1.035117,-0.17161 -2.070234,-0.34322 -3.136718,-0.52002 -33.11458,-5.64178 -63.946536,-17.45625 -88.863278,-40.47998 -0.51547,-0.47164 -1.03093,-0.94327 -1.56202,-1.4292 -20.45495,-18.91747 -31.23921,-42.3826 -36.43798,-69.5708 -0.17403,-0.76724 -0.34805,-1.53447 -0.52735,-2.32495 -0.50924,-2.88212 -0.59913,-5.5734 -0.61328,-8.49927 -0.0193,-1.11182 -0.0387,-2.22363 -0.0586,-3.36914 -0.0336,-2.30973 -0.0521,-4.61972 -0.0547,-6.92969 -0.19938,-9.10325 -2.08637,-16.34198 -8.54297,-23.02148 -1.4618,-1.32065 -1.4618,-1.32065 -2.95312,-2.66797 -17.83816,-16.91606 -28.71405,-41.54876 -29.48828,-66.10938 -0.5438,-33.401468 8.71137,-61.66256 31.83593,-86.605466 C -127.81434,-27.903119 -53.243081,-27.992166 0,0 Z"
       fill="#f1e4cc"
       transform="translate(496.27734,410.22656)"
       id="path3" /><path
       d="M 0,0 C 1.2364325,-0.00776459 2.472865,-0.01552917 3.7467651,-0.02352905 33.011639,-0.16824147 62.39214,2.3673564 90.640625,10.371094 c 2.632522,0.732205 5.249328,1.410321 7.90625,2.039062 1.083054,0.258135 1.083054,0.258135 2.187985,0.521485 1.38229,0.326728 2.76601,0.647475 4.15137,0.960937 3.97281,0.950131 6.90813,2.361301 10.36377,4.482422 2.37839,0.842629 4.7766,1.630493 7.1875,2.375 6.28545,2.011374 11.98343,4.517416 17.8125,7.625 0.84949,0.404766 1.69898,0.809531 2.57422,1.226562 14.6919,7.007851 28.71908,15.604231 41.42578,25.773438 0.82113,0.630352 1.64227,1.260703 2.48828,1.910156 6.65084,5.165806 12.8282,10.803495 18.93311,16.594727 1.45667,1.379624 2.92532,2.746567 4.39502,4.112304 38.35008,36.731233 55.03198,91.536163 56.33154,143.563473 0.11483,5.8355 0.15161,11.67033 0.16455,17.50684 0.004,0.94489 0.008,1.88979 0.0114,2.86331 0.023,11.36251 -0.5936,22.20789 -2.32391,33.44919 -0.15742,1.51788 -0.30092,3.03737 -0.42188,4.55859 -1.54894,18.31076 -6.76834,36.06603 -12.57812,53.44141 -0.4314,1.36185 -0.86237,2.72383 -1.29297,4.08594 -3.67526,11.31204 -8.84233,21.58537 -14.70703,31.91406 -0.57492,1.01707 -1.14984,2.03414 -1.74219,3.08203 -9.53801,15.82552 -23.0399,31.17388 -37.25781,42.91797 -0.86883,0.75668 -1.73766,1.51336 -2.63281,2.29297 C 141.24088,462.71159 67.063161,474.87757 0,474.75 c -1.6366058,-8.2e-4 -1.6366058,-8.2e-4 -3.3062744,-0.002 C -42.902356,474.6587 -83.066617,471.24509 -120.75,458.375 c -1.31871,-0.43651 -1.31871,-0.43651 -2.66406,-0.88184 -13.52116,-4.49912 -25.92471,-10.1424 -38.33594,-17.11816 -0.76949,-0.42193 -1.53898,-0.84385 -2.33179,-1.27856 -10.27309,-5.63654 -19.67879,-12.21279 -28.66821,-19.72144 -0.51788,-0.42233 -1.03576,-0.84466 -1.56934,-1.27979 -27.20607,-22.19526 -48.05686,-50.67073 -60.57128,-83.49365 -0.57849,-1.49881 -1.19413,-2.98374 -1.84375,-4.45312 -2.86703,-6.59415 -4.45943,-13.38009 -6.01172,-20.3711 -0.89661,-4.02553 -1.97771,-7.98674 -3.06641,-11.96484 -2.78203,-10.60776 -3.76656,-21.55856 -4.9375,-32.4375 -0.0964,-0.83145 -0.19288,-1.66289 -0.29224,-2.51953 -2.05672,-18.57923 -0.81375,-37.15138 1.16724,-55.66797 0.087,-0.82174 0.17408,-1.64347 0.26376,-2.49011 0.88385,-8.21524 1.87968,-16.28653 3.86124,-24.32239 0.2883,-1.78894 0.56127,-3.58048 0.8125,-5.375 5.63628,-34.56625 20.48066,-63.94602 44.1875,-89.625 1.52101,-1.729011 3.04184,-3.458178 4.5625,-5.1875 3.28256,-3.646652 6.67623,-6.953051 10.42578,-10.113281 2.11584,-1.787166 4.15351,-3.644868 6.19922,-5.511719 5.18421,-4.613145 10.66369,-8.818567 16.20898,-12.982422 1.50299,-1.129527 2.99884,-2.268535 4.49415,-3.408203 6.10357,-4.568961 12.35477,-8.282358 19.10937,-11.796875 1.69851,-0.936076 3.39701,-1.872157 5.09546,-2.80835 23.13641,-12.612331 47.98302,-21.933745 73.92456,-26.8151852 1.913803,-0.3638823 3.820214,-0.7660035 5.726074,-1.1694336 C -70.598693,4.7080867 -66.196135,4.0028642 -61.75,3.375 -60.787715,3.2367481 -59.82543,3.0984961 -58.833984,2.9560547 -39.267313,0.30527929 -19.718393,0.05626917 0,0 Z m -131.75,117.375 c -0.71575,0.16097 -1.4315,0.32194 -2.16895,0.48779 -16.13336,3.81181 -32.09022,10.81902 -44.83105,21.51221 -0.83531,0.69738 -1.67062,1.39477 -2.53125,2.11328 -22.07587,19.18011 -36.55442,44.73658 -40.46875,73.88672 -0.2883,4.4208 -0.33385,8.82075 -0.3125,13.25 0.004,1.1886 0.008,2.37719 0.0127,3.60181 0.11229,8.74372 0.86412,16.71294 3.2998,25.14819 0.26684,0.99 0.53367,1.98 0.80859,3 5.30875,17.74301 15.06403,32.99561 28.86719,45.29297 6.75243,7.86459 7.99979,15.26469 7.94922,25.39453 0.34439,19.4907 4.54285,37.83443 13.375,55.3125 0.42797,0.87785 0.85594,1.7557 1.29688,2.66016 16.32408,31.86864 48.47819,53.27492 81.70312,64.33984 13.090136,4.01894 26.440645,7.09565 40,9 0.683364,0.10296 1.366729,0.20593 2.070801,0.31201 56.054391,8.17003 122.34018,0.80621 168.749509,-33.39014 27.10483,-21.33616 44.42197,-49.91391 48.92432,-84.31933 0.56818,-5.79046 0.64782,-11.64358 0.61352,-17.45947 0.13514,-9.28579 3.49369,-16.50868 9.95435,-23.20557 0.77859,-0.83016 1.55719,-1.66031 2.35937,-2.51563 0.76829,-0.79921 1.53657,-1.59843 2.32813,-2.42187 20.67477,-21.60746 26.48748,-47.15027 26.21484,-76.26563 C 215.8195,194.20133 202.13185,166.0103 181.73877,145.78174 164.79946,129.77579 143.04149,120.41544 120.25,116.375 c -1.06348,-0.20367 -2.12695,-0.40734 -3.22266,-0.61719 -39.382336,-6.2566 -75.723531,2.07827 -110.5668908,20.51319 -4.3669144,2.18104 -8.3977473,2.66955 -13.2104492,2.104 -2.6224669,-1.066 -4.87222,-2.12724 -7.3125,-3.5 -1.40378,-0.74038 -2.810146,-1.47587 -4.21875,-2.20703 -1.094414,-0.56969 -1.094414,-0.56969 -2.210937,-1.15088 C -33.379501,124.99818 -46.658684,120.43846 -60.75,117.375 c -1.071936,-0.24557 -1.071936,-0.24557 -2.165527,-0.49609 -21.774207,-4.83761 -47.102713,-4.43049 -68.834473,0.49609 z"
       fill="#51352a"
       transform="translate(514.75,277.625)"
       id="path4" /><path
       d="M 0,0 C 1.0257715,0.00676758 1.0257715,0.00676758 2.0722656,0.01367188 3.735716,0.0253044 5.3991205,0.04323306 7.0625,0.0625 c 1.125331,4.0628832 0.8124104,6.3218097 -0.625,10.25 -5.95777377,18.285624 -8.3745524,37.687827 -10.375,56.75 -0.144657,1.271459 -0.144657,1.271459 -0.2922363,2.568604 C -5.089365,77.830108 -5.1342679,86.01629 -5.125,94.25 c -5.891e-4,1.113765 -5.891e-4,1.113765 -0.00119,2.250031 0.00902,14.305289 1.0056204,28.402469 2.5133972,42.625459 0.1505786,1.50216 0.1505786,1.50216 0.3041992,3.03467 0.094827,0.91402 0.1896534,1.82805 0.2873536,2.76977 0.041451,1.05562 0.041451,1.05562 0.08374,2.13257 -1.7952284,1.79523 -4.3864547,1.21547 -6.8125,1.25 -17.098673,-0.20489 -32.238144,-7.71234 -44.453125,-19.42188 C -69.263859,112.17435 -73.492774,92.915314 -73.207031,70.417969 -72.60975,50.466429 -63.68049,32.506306 -49.484375,18.671875 -35.709929,6.5470631 -18.309819,-0.16203379 0,0 Z"
       fill="#f1e5cf"
       transform="translate(218.9375,419.9375)"
       id="path5" /><path
       d="M 0,0 C 19.333363,-1.4403996 39.114559,4.2518431 53.897705,16.977295 67.879435,29.668813 78.849661,46.459834 80.190918,65.745117 81.09606,88.557697 76.962491,108.3176 61.8125,126.125 49.98836,138.6869 34.677474,147.24153 17.203125,148.14453 14.782455,148.18214 12.411962,148.20952 10,148 c -0.33,-0.33 -0.66,-0.66 -1,-1 0.065555,-2.16928 0.2039526,-4.33648 0.375,-6.5 0.090234,-1.18594 0.1804687,-2.37188 0.2734375,-3.59375 0.240142,-2.66824 0.5242625,-5.29931 0.8564455,-7.95435 0.597016,-5.36237 0.710167,-10.69683 0.768555,-16.08862 0.01244,-1.06139 0.02487,-2.12277 0.03769,-3.21632 C 11.500416,89.568105 11.528009,69.669594 8.75,49.75 8.64758,49.006825 8.5451599,48.263651 8.4396362,47.497955 6.5086009,33.884099 3.5346667,20.420156 -0.58203125,7.296875 -1.072639,4.6008251 -0.68621619,2.6328295 0,0 Z"
       fill="#f0e3cc"
       transform="translate(799,420)"
       id="path6" /><path
       d="M 0,0 C 6.7239933,4.1260868 10.956614,11.523278 13,19 14.032272,28.458493 12.863562,36.356266 7.4570312,44.253906 2.8700212,49.953555 -2.1551249,52.718375 -9,55 -19.654385,55.904008 -27.262121,54.977294 -35.988281,48.53125 -42.102595,43.189408 -45.166357,35.881864 -46.515625,27.980469 -47.03378,18.995187 -43.715666,11.909987 -38.359375,4.8320312 -28.258008,-6.2369898 -12.815632,-7.0326697 0,0 Z"
       fill="#1d221e"
       transform="translate(628,478)"
       id="path7" /><path
       d="m 0,0 c 6.6634756,4.5701798 11.870628,10.083628 14,18 1.382745,9.684078 0.98659,18.916584 -5,27 -4.5066223,5.902074 -9.7269065,9.369824 -17,11 -8.361461,0.857359 -16.036659,1.122458 -23,-4 -0.918457,-0.61875 -0.918457,-0.61875 -1.855469,-1.25 C -38.8758,46.231543 -42.580879,39.37074 -44,32 -44.842418,22.619997 -42.97282,14.425668 -37,7 -27.050126,-3.1019465 -13.158344,-7.1838755 0,0 Z"
       fill="#1d221e"
       transform="translate(427,477)"
       id="path8" /></g></svg>
